<svg width="36" height="36" viewBox="0 0 36 36" fill="none" xmlns="http://www.w3.org/2000/svg">
<path d="M23.296 28.4541C23.4005 28.5586 23.4834 28.6827 23.54 28.8193C23.5965 28.9558 23.6257 29.1022 23.6257 29.25C23.6257 29.3978 23.5965 29.5442 23.54 29.6808C23.4834 29.8173 23.4005 29.9414 23.296 30.046C23.1914 30.1505 23.0674 30.2334 22.9308 30.29C22.7942 30.3465 22.6478 30.3756 22.5 30.3756C22.3522 30.3756 22.2058 30.3465 22.0693 30.29C21.9327 30.2334 21.8086 30.1505 21.7041 30.046L10.4541 18.796C10.3495 18.6915 10.2665 18.5674 10.2099 18.4308C10.1533 18.2943 10.1241 18.1479 10.1241 18C10.1241 17.8522 10.1533 17.7058 10.2099 17.5692C10.2665 17.4326 10.3495 17.3086 10.4541 17.2041L21.7041 5.95408C21.9152 5.74298 22.2015 5.62439 22.5 5.62439C22.7986 5.62439 23.0849 5.74298 23.296 5.95408C23.5071 6.16517 23.6257 6.45148 23.6257 6.75002C23.6257 7.04855 23.5071 7.33486 23.296 7.54595L12.8405 18L23.296 28.4541Z" fill="#6C5125"/>
</svg>
