<svg width="36" height="37" viewBox="0 0 36 37" fill="none" xmlns="http://www.w3.org/2000/svg">
<ellipse cx="18" cy="18.5" rx="18" ry="18.5" fill="#F5B756"/>
<path d="M13.1665 20.5L20.9165 20.5" stroke="white" stroke-width="2" stroke-linecap="round"/>
<path d="M13.1665 15.5L18.3332 15.5" stroke="white" stroke-width="2" stroke-linecap="round"/>
<path d="M13.1665 25.5L18.3332 25.5" stroke="white" stroke-width="2" stroke-linecap="round"/>
<path d="M26.0833 20.5V22.5C26.0833 26.2712 26.0833 28.1569 24.9118 29.3284C23.7402 30.5 21.8546 30.5 18.0833 30.5H16C12.2288 30.5 10.3431 30.5 9.17157 29.3284C8 28.1569 8 26.2712 8 22.5V15.75C8 12.2214 8 10.457 9.0362 9.31376C9.12412 9.21675 9.21675 9.12412 9.31376 9.0362C10.457 8 12.2214 8 15.75 8V8" stroke="white" stroke-width="2.3"/>
<path d="M24.7915 8L24.7915 15.5" stroke="white" stroke-width="2" stroke-linecap="round"/>
<path d="M28.6665 11.75L20.9165 11.75" stroke="white" stroke-width="2" stroke-linecap="round"/>
</svg>
