<svg width="44" height="45" viewBox="0 0 44 45" fill="none" xmlns="http://www.w3.org/2000/svg">
<g filter="url(#filter0_d_533_1982)">
<ellipse cx="20" cy="20.5" rx="18" ry="18.5" fill="#F5B756"/>
<path d="M15.1665 22.5L22.9165 22.5" stroke="white" stroke-width="2" stroke-linecap="round"/>
<path d="M15.1665 17.5L20.3332 17.5" stroke="white" stroke-width="2" stroke-linecap="round"/>
<path d="M15.1665 27.5L20.3332 27.5" stroke="white" stroke-width="2" stroke-linecap="round"/>
<path d="M28.0833 22.5V24.5C28.0833 28.2712 28.0833 30.1569 26.9118 31.3284C25.7402 32.5 23.8546 32.5 20.0833 32.5H18C14.2288 32.5 12.3431 32.5 11.1716 31.3284C10 30.1569 10 28.2712 10 24.5V17.75C10 14.2214 10 12.457 11.0362 11.3138C11.1241 11.2168 11.2168 11.1241 11.3138 11.0362C12.457 10 14.2214 10 17.75 10V10" stroke="white" stroke-width="2.3"/>
<path d="M26.7915 10L26.7915 17.5" stroke="white" stroke-width="2" stroke-linecap="round"/>
<path d="M30.6665 13.75L22.9165 13.75" stroke="white" stroke-width="2" stroke-linecap="round"/>
</g>
<defs>
<filter id="filter0_d_533_1982" x="0" y="0" width="44" height="45" filterUnits="userSpaceOnUse" color-interpolation-filters="sRGB">
<feFlood flood-opacity="0" result="BackgroundImageFix"/>
<feColorMatrix in="SourceAlpha" type="matrix" values="0 0 0 0 0 0 0 0 0 0 0 0 0 0 0 0 0 0 127 0" result="hardAlpha"/>
<feOffset dx="2" dy="2"/>
<feGaussianBlur stdDeviation="2"/>
<feComposite in2="hardAlpha" operator="out"/>
<feColorMatrix type="matrix" values="0 0 0 0 0 0 0 0 0 0 0 0 0 0 0 0 0 0 0.25 0"/>
<feBlend mode="normal" in2="BackgroundImageFix" result="effect1_dropShadow_533_1982"/>
<feBlend mode="normal" in="SourceGraphic" in2="effect1_dropShadow_533_1982" result="shape"/>
</filter>
</defs>
</svg>
