<svg width="36" height="36" viewBox="0 0 36 36" fill="none" xmlns="http://www.w3.org/2000/svg">
<path d="M30.773 14.5927L19.523 3.97833C19.5175 3.97353 19.5123 3.96836 19.5075 3.96286C19.0933 3.58617 18.5535 3.37744 17.9937 3.37744C17.4338 3.37744 16.894 3.58617 16.4798 3.96286L16.4644 3.97833L5.22703 14.5927C4.99781 14.8035 4.81484 15.0596 4.68969 15.3447C4.56455 15.6298 4.49995 15.9379 4.5 16.2493V29.25C4.5 29.8468 4.73705 30.4191 5.15901 30.841C5.58097 31.263 6.15326 31.5 6.75 31.5H29.25C29.8467 31.5 30.419 31.263 30.841 30.841C31.2629 30.4191 31.5 29.8468 31.5 29.25V16.2493C31.5 15.9379 31.4355 15.6298 31.3103 15.3447C31.1852 15.0596 31.0022 14.8035 30.773 14.5927ZM29.25 29.25H6.75V16.2493L6.76547 16.2352L18 5.62505L29.2359 16.2324L29.2514 16.2465L29.25 29.25Z" fill="#6F3E16"/>
</svg>
